<svg width="20" height="20" viewBox="0 0 20 20" fill="none" xmlns="http://www.w3.org/2000/svg">
  <g clip-path="url(#clip0_408_55)">
    <path fill-rule="evenodd" clip-rule="evenodd" d="M2 2.00006C2 0.895493 2.89543 6.10352e-05 4 6.10352e-05H16C17.1046 6.10352e-05 18 0.895491 18 2.00006V18.0001C18 19.1046 17.1046 20.0001 16 20.0001H4C2.89543 20.0001 2 19.1046 2 18.0001V2.00006ZM16 2.00006L4 2.00006V18.0001H16V2.00006Z" fill="#535CDE"/>
    <path fill-rule="evenodd" clip-rule="evenodd" d="M6 10.0001C6 9.44778 6.44772 9.00006 7 9.00006H13C13.5523 9.00006 14 9.44778 14 10.0001C14 10.5523 13.5523 11.0001 13 11.0001H7C6.44772 11.0001 6 10.5523 6 10.0001Z" fill="#535CDE"/>
    <path fill-rule="evenodd" clip-rule="evenodd" d="M6 14.0001C6 13.4478 6.44772 13.0001 7 13.0001H10C10.5523 13.0001 11 13.4478 11 14.0001C11 14.5523 10.5523 15.0001 10 15.0001H7C6.44772 15.0001 6 14.5523 6 14.0001Z" fill="#535CDE"/>
    <path fill-rule="evenodd" clip-rule="evenodd" d="M6 6.00006C6 5.44778 6.44772 5.00006 7 5.00006H13C13.5523 5.00006 14 5.44778 14 6.00006C14 6.55235 13.5523 7.00006 13 7.00006H7C6.44772 7.00006 6 6.55235 6 6.00006Z" fill="#535CDE"/>
  </g>
  <defs>
    <clipPath id="clip0_408_55">
      <rect width="20" height="20" fill="white"/>
    </clipPath>
  </defs>
</svg>
