<svg width="1em" height="1em" viewBox="0 0 18 18" fill="currentcolor" xmlns="http://www.w3.org/2000/svg">
  <path fill-rule="evenodd" clip-rule="evenodd"
    d="M11.71 11L11.43 10.73C12.41 9.59 13 8.11 13 6.5C13 2.91 10.09 0 6.5 0C2.91 0 0 2.91 0 6.5C0 10.09 2.91 13 6.5 13C8.11 13 9.59 12.41 10.73 11.43L11 11.71V12.5L16 17.49L17.49 16L12.5 11H11.71ZM6.50006 11.0001C4.01006 11.0001 2.00006 8.99006 2.00006 6.50006C2.00006 4.01006 4.01006 2.00006 6.50006 2.00006C8.99006 2.00006 11.0001 4.01006 11.0001 6.50006C11.0001 8.99006 8.99006 11.0001 6.50006 11.0001Z" />
</svg>