<svg width="1em" height="1em" viewBox="0 0 22 21" stroke="currentcolor" fill="none" xmlns="http://www.w3.org/2000/svg">
  <path
    d="M14.4145 1.33325L14.4136 1.33325C13.1909 1.33345 12.0018 1.69715 11.0006 2.36915C9.99931 1.69701 8.81012 1.33329 7.58729 1.33325L7.58624 1.33325C6.7884 1.33406 5.99807 1.48896 5.26053 1.78959C4.52327 2.09011 3.85258 2.53063 3.28762 3.08694C0.879517 5.45 0.878831 9.17821 3.29158 11.5342C3.29163 11.5343 3.29168 11.5343 3.29173 11.5344L10.3017 18.3819L11.0005 19.0645L11.6993 18.3819L18.7093 11.5344C21.1227 9.17784 21.1211 5.44936 18.7097 3.08337C18.145 2.52791 17.4747 2.08816 16.7379 1.78826C16.001 1.48829 15.2115 1.33385 14.4145 1.33325Z"
    stroke-width="2" />
</svg>