<svg width="24" height="24" viewBox="0 0 24 24" fill="currentcolor" xmlns="http://www.w3.org/2000/svg">
  <path d="M11.7434 0.580078C5.43675 0.580078 0.330078 5.70008 0.330078 12.0067C0.330078 18.3134 5.43675 23.4201 11.7434 23.4201C18.0501 23.4201 23.1701 18.3134 23.1701 12.0067C23.1701 5.70008 18.0501 0.580078 11.7434 0.580078ZM20.4501 7.24674H15.9967C15.7434 6.10008 15.4367 5.08674 15.1167 4.23341C14.8501 3.51341 14.5834 2.91341 14.3567 2.43341C16.9834 3.15341 19.1701 4.91341 20.4501 7.24674ZM14.9967 12.0067C14.9967 13.1667 14.8901 14.2601 14.7434 15.2467H8.74341C8.59674 14.2601 8.50341 13.1667 8.50341 12.0067C8.50341 10.8467 8.59674 9.75341 8.74341 8.75341H14.7434C14.8901 9.75341 14.9967 10.8334 14.9967 12.0067ZM10.6634 2.74008C10.7834 2.51341 10.8767 2.34008 10.9434 2.23341C10.9701 2.18008 10.9967 2.14008 11.0101 2.11341C11.2501 2.10008 11.5034 2.08674 11.7434 2.08674C11.9834 2.08674 12.2367 2.08674 12.4767 2.11341C12.4901 2.14008 12.5167 2.18008 12.5434 2.23341C12.6101 2.34008 12.7034 2.51341 12.8234 2.74008C13.0634 3.20674 13.3834 3.88674 13.7034 4.75341C13.9701 5.46008 14.2234 6.30008 14.4501 7.24674H9.03674C9.26341 6.30008 9.51674 5.46008 9.78341 4.75341C10.1034 3.88674 10.4234 3.20674 10.6634 2.74008ZM9.13008 2.43341C8.90341 2.91341 8.63674 3.51341 8.37008 4.23341C8.06341 5.08674 7.74341 6.10008 7.49008 7.24674H3.03674C4.31674 4.91341 6.50341 3.15341 9.13008 2.43341ZM1.83674 12.0067C1.83674 10.8601 2.02341 9.78008 2.37008 8.75341H7.22341C7.07674 9.76674 6.99674 10.8467 6.99674 12.0067C6.99674 13.1667 7.07674 14.2467 7.22341 15.2467H2.37008C2.02341 14.2334 1.83674 13.1401 1.83674 12.0067ZM3.03674 16.7534H7.49008C7.74341 17.9134 8.06341 18.9267 8.37008 19.7801C8.63674 20.5001 8.90341 21.1001 9.13008 21.5667C6.50341 20.8601 4.31674 19.0867 3.03674 16.7534ZM12.8234 21.2601C12.7034 21.4867 12.6101 21.6601 12.5434 21.7801C12.5167 21.8201 12.4901 21.8601 12.4767 21.8867C12.2367 21.9134 11.9834 21.9134 11.7434 21.9134C11.5034 21.9134 11.2501 21.9134 11.0101 21.8867C10.9967 21.8601 10.9701 21.8201 10.9434 21.7801C10.8767 21.6601 10.7834 21.4867 10.6634 21.2601C10.4234 20.8067 10.1034 20.1267 9.78341 19.2601C9.51674 18.5401 9.26341 17.7001 9.03674 16.7534H14.4501C14.2234 17.7001 13.9701 18.5401 13.7034 19.2601C13.3834 20.1267 13.0634 20.8067 12.8234 21.2601ZM14.3567 21.5667C14.5834 21.1001 14.8501 20.5001 15.1167 19.7801C15.4367 18.9267 15.7434 17.9134 15.9967 16.7534H20.4501C19.1701 19.0867 16.9834 20.8601 14.3567 21.5667ZM16.2634 15.2467C16.4101 14.2467 16.5034 13.1667 16.5034 12.0067C16.5034 10.8467 16.4101 9.76674 16.2634 8.75341H21.1167C21.4634 9.78008 21.6634 10.8601 21.6634 12.0067C21.6634 13.1534 21.4634 14.2334 21.1167 15.2467H16.2634Z" fill="#141ED2"/>
</svg>
