<svg  width="1.1em" height="1.1em" viewBox="0 0 16 16" fill="currentcolor" xmlns="http://www.w3.org/2000/svg">
  <path
    d="M0.721231 8.53026L7.45473 15.2803C7.74648 15.5728 8.22348 15.5735 8.51523 15.2818L15.281 8.53176C15.3508 8.46209 15.4062 8.37933 15.444 8.28821C15.4819 8.19709 15.5013 8.09941 15.5013 8.00076C15.5013 7.90211 15.4819 7.80443 15.444 7.71331C15.4062 7.62219 15.3508 7.53943 15.281 7.46976L8.51523 0.719762C8.44554 0.650151 8.36281 0.594965 8.27177 0.55736C8.18073 0.519756 8.08317 0.500472 7.98467 0.500611C7.88617 0.50075 7.78866 0.520311 7.69773 0.558172C7.6068 0.596034 7.52422 0.651455 7.45473 0.721262L0.721231 7.47126C0.651658 7.54078 0.596465 7.62332 0.558809 7.71417C0.521152 7.80503 0.50177 7.90241 0.50177 8.00076C0.50177 8.09911 0.521152 8.1965 0.558809 8.28735C0.596465 8.37821 0.651658 8.46075 0.721231 8.53026ZM5.75148 6.50076H9.50148V5.00076L11.7515 7.25076L9.50148 9.50076V8.00076H7.25148V11.0008H5.75148V6.50076Z" />
</svg>