<svg width="1em" height="1em" viewBox="0 0 18 18" fill="currentcolor" xmlns="http://www.w3.org/2000/svg">
  <path fill-rule="evenodd" clip-rule="evenodd"
    d="M2.64659 2.47874C0.0349584 5.09037 0.0349584 9.32466 2.64659 11.9363C5.1543 14.444 9.15811 14.5438 11.7849 12.2356L12.6034 13.0542C12.3473 13.5687 12.4336 14.2104 12.8625 14.6392L15.4282 17.205C15.9652 17.7419 16.8358 17.7419 17.3728 17.205C17.9097 16.668 17.9097 15.7974 17.3728 15.2604L14.807 12.6947C14.3782 12.2659 13.7367 12.1795 13.2222 12.4355L12.4036 11.6169C14.7116 8.99015 14.6118 4.98642 12.1041 2.47874C9.49251 -0.132888 5.25822 -0.132888 2.64659 2.47874ZM3.26461 3.09752C5.53453 0.827593 9.2148 0.827593 11.4847 3.09752C13.7546 5.36744 13.7546 9.04771 11.4847 11.3176C9.2148 13.5876 5.53453 13.5876 3.26461 11.3176C0.994684 9.04771 0.994684 5.36744 3.26461 3.09752ZM13.4815 13.3135L13.4739 13.3209C13.2862 13.5167 13.2887 13.8276 13.4814 14.0204L16.0471 16.5861C16.2424 16.7814 16.559 16.7814 16.7542 16.5861C16.9495 16.3909 16.9495 16.0743 16.7542 15.879L14.1885 13.3133C13.9957 13.1205 13.6848 13.118 13.489 13.3058L13.4815 13.3135Z" />
</svg>