<svg width="1em" height="1em" viewBox="0 0 12 10" fill="none" xmlns="http://www.w3.org/2000/svg">
  <path
    d="M1.48689 4.21367H1.48701C1.5682 4.21377 1.64831 4.23226 1.72133 4.26775C1.79432 4.30323 1.85833 4.35477 1.90855 4.41852L1.48689 4.21367ZM1.48689 4.21367H0.531227C0.356214 4.21367 0.258731 4.41519 0.366567 4.55195L0.366601 4.552L4.11133 9.29614L4.11136 9.29618C4.32655 9.56853 4.7395 9.56804 4.95574 9.29647L4.95602 9.29613L11.6328 0.835312C11.6329 0.835176 11.633 0.835041 11.6331 0.834905C11.7426 0.698067 11.642 0.497656 11.4687 0.497656H10.5131C10.3487 0.497656 10.1924 0.573026 10.0912 0.702772C10.0911 0.702844 10.0911 0.702916 10.091 0.702988L4.53299 7.74387M1.48689 4.21367L4.53299 7.74387M4.53299 7.74387L1.90861 4.41859L4.53299 7.74387Z"
    fill="#001BFF" stroke="#001BFF" stroke-width="0.2" />
</svg>