<svg width="22" height="15" viewBox="0 0 22 15" fill="none" xmlns="http://www.w3.org/2000/svg">
  <path opacity="0.4" d="M9.23223 5.73223C9.70107 5.26339 10.337 5 11 5C11.663 5 12.2989 5.26339 12.7678 5.73223C13.2366 6.20107 13.5 6.83696 13.5 7.5C13.5 8.16304 13.2366 8.79893 12.7678 9.26777C12.2989 9.73661 11.663 10 11 10C10.337 10 9.70107 9.73661 9.23223 9.26777C8.76339 8.79893 8.5 8.16304 8.5 7.5C8.5 6.83696 8.76339 6.20107 9.23223 5.73223ZM7.11091 11.3891C8.14236 12.4205 9.54131 13 11 13C12.4587 13 13.8576 12.4205 14.8891 11.3891C15.9205 10.3576 16.5 8.95869 16.5 7.5C16.5 6.04131 15.9205 4.64236 14.8891 3.61091C13.8576 2.57946 12.4587 2 11 2C9.54131 2 8.14236 2.57946 7.11091 3.61091C6.07946 4.64236 5.5 6.04131 5.5 7.5C5.5 8.95869 6.07946 10.3576 7.11091 11.3891ZM0.539284 7.5C2.24223 3.39095 6.28287 0.5 11 0.5C15.7171 0.5 19.7578 3.39095 21.4607 7.5C19.7578 11.6091 15.7171 14.5 11 14.5C6.28287 14.5 2.24223 11.6091 0.539284 7.5Z" fill="#1670F7" stroke="#606090"/>
</svg>
