<svg width="1em" height="1em" viewBox="0 0 12 14" fill="currentcolor" xmlns="http://www.w3.org/2000/svg">
  <path
    d="M1.5 2.59562V9.8125C1.49989 10.5266 1.77139 11.2139 2.25942 11.7352C2.74745 12.2564 3.41548 12.5725 4.128 12.6194L4.3125 12.625H9.27825C9.16194 12.954 8.94652 13.2388 8.66164 13.4403C8.37676 13.6417 8.03643 13.75 7.6875 13.75H3.75C2.85489 13.75 1.99645 13.3944 1.36352 12.7615C0.73058 12.1286 0.375 11.2701 0.375 10.375V4.1875C0.374817 3.83838 0.482919 3.4978 0.684407 3.2127C0.885895 2.92759 1.17085 2.712 1.5 2.59562ZM9.9375 0.25C10.3851 0.25 10.8143 0.42779 11.1307 0.744257C11.4472 1.06072 11.625 1.48995 11.625 1.9375V9.8125C11.625 10.2601 11.4472 10.6893 11.1307 11.0057C10.8143 11.3222 10.3851 11.5 9.9375 11.5H4.3125C3.86495 11.5 3.43573 11.3222 3.11926 11.0057C2.80279 10.6893 2.625 10.2601 2.625 9.8125V1.9375C2.625 1.48995 2.80279 1.06072 3.11926 0.744257C3.43573 0.42779 3.86495 0.25 4.3125 0.25H9.9375Z" />
</svg>