<svg width="1em" height="1em" viewBox="0 0 10 14" fill="currentcolor" xmlns="http://www.w3.org/2000/svg">
  <path
    d="M4.99995 13.4001C1.79972 9.5025 0.199951 6.72938 0.199951 5.0801C0.199951 4.49178 0.324107 3.90921 0.565329 3.36568C0.806552 2.82214 1.16012 2.32827 1.60584 1.91226C2.05156 1.49625 2.58071 1.16626 3.16307 0.941117C3.74543 0.715976 4.36961 0.600098 4.99995 0.600098C5.6303 0.600098 6.25447 0.715976 6.83683 0.941117C7.41919 1.16626 7.94834 1.49625 8.39406 1.91226C8.83978 2.32827 9.19335 2.82214 9.43457 3.36568C9.6758 3.90921 9.79995 4.49178 9.79995 5.0801C9.79995 6.72938 8.20018 9.5025 4.99995 13.4001ZM4.99995 7.6401C5.7274 7.6401 6.42506 7.37038 6.93944 6.89029C7.45383 6.4102 7.74281 5.75905 7.74281 5.0801C7.74281 4.40114 7.45383 3.75 6.93944 3.2699C6.42506 2.78981 5.7274 2.5201 4.99995 2.5201C4.2725 2.5201 3.57484 2.78981 3.06046 3.2699C2.54607 3.75 2.25709 4.40114 2.25709 5.0801C2.25709 5.75905 2.54607 6.4102 3.06046 6.89029C3.57484 7.37038 4.2725 7.6401 4.99995 7.6401Z" />
</svg>