<svg width="1em" height="1em" viewBox="0 0 18 18" fill="currentcolor" xmlns="http://www.w3.org/2000/svg">
  <path fill-rule="evenodd" clip-rule="evenodd"
    d="M10.7303 0.565641L0.565641 10.7303C0.394775 10.9012 0.394788 11.1782 0.565671 11.349L2.12822 12.9113C2.25719 13.0402 2.45263 13.0757 2.61864 13.0002C3.27736 12.7006 4.06073 12.8359 4.58103 13.3562C5.10132 13.8764 5.23656 14.6598 4.93702 15.3185C4.86153 15.4846 4.89694 15.68 5.0259 15.809L6.7528 17.5362C6.92365 17.7071 7.20068 17.7071 7.37154 17.5362L10.5638 14.344L10.5724 14.3356L10.5814 14.3264L17.5362 7.37154C17.7071 7.20067 17.7071 6.92362 17.5362 6.75277L15.8088 5.02595C15.6798 4.89703 15.4844 4.86162 15.3184 4.93709C14.6597 5.23654 13.8764 5.10128 13.3562 4.58103C12.8359 4.06077 12.7006 3.27747 13.0001 2.61879C13.0756 2.45278 13.0402 2.25738 12.9112 2.12842L11.3491 0.565696C11.1782 0.39479 10.9012 0.394765 10.7303 0.565641ZM10.2634 13.4066L16.6075 7.06252L15.3896 5.84452L15.3176 5.8673C14.457 6.1141 13.5139 5.90711 12.8328 5.29059L12.7373 5.19973C12.0507 4.5131 11.8112 3.52101 12.0697 2.61942L12.0922 2.5472L11.0391 1.49405L4.70081 7.83232L5.85519 8.98915C6.02587 9.16019 6.02557 9.4372 5.85454 9.60787C5.6835 9.77855 5.40649 9.77825 5.23582 9.60722L4.08209 8.45104L1.49314 11.04L2.54673 12.0927L2.6191 12.0699C3.47976 11.823 4.42291 12.03 5.10411 12.6466L5.19961 12.7374C5.8863 13.4241 6.12576 14.4163 5.86712 15.3179L5.84406 15.39L7.0616 16.6085L9.6447 14.0254L9.20919 13.5889C9.03852 13.4179 9.03881 13.1409 9.20985 12.9702C9.38088 12.7995 9.65789 12.7998 9.82856 12.9709L10.2634 13.4066ZM7.88461 12.2616L6.56019 10.9344C6.38952 10.7634 6.38981 10.4863 6.56084 10.3157C6.73188 10.145 7.00889 10.1453 7.17956 10.3163L8.50398 11.6436C8.67466 11.8146 8.67436 12.0916 8.50333 12.2623C8.33229 12.4329 8.05528 12.4327 7.88461 12.2616ZM8.91178 5.62278C9.57638 5.62278 10.1151 6.16155 10.1151 6.82615C10.1151 7.49075 9.57638 8.02951 8.91178 8.02951C8.24718 8.02951 7.70842 7.49075 7.70842 6.82615C7.70842 6.16155 8.24718 5.62278 8.91178 5.62278ZM13.4417 8.54339C13.4417 7.87879 12.903 7.34003 12.2384 7.34003C11.5738 7.34003 11.035 7.87879 11.035 8.54339C11.035 9.20799 11.5738 9.74675 12.2384 9.74675C12.903 9.74675 13.4417 9.20799 13.4417 8.54339ZM11.9098 8.5435C11.9098 8.36215 12.0568 8.21514 12.2382 8.21514C12.4195 8.21514 12.5665 8.36215 12.5665 8.5435C12.5665 8.72485 12.4195 8.87186 12.2382 8.87186C12.0568 8.87186 11.9098 8.72485 11.9098 8.5435ZM8.58352 6.82611C8.58352 6.64476 8.73054 6.49774 8.91189 6.49774C9.09324 6.49774 9.24025 6.64476 9.24025 6.82611C9.24025 7.00746 9.09324 7.15447 8.91189 7.15447C8.73054 7.15447 8.58352 7.00746 8.58352 6.82611ZM11.6514 5.29126C11.431 5.19222 11.1721 5.2906 11.073 5.51099L9.32869 9.39257L9.30652 9.45348C9.24854 9.65872 9.34806 9.88092 9.54842 9.97096C9.76881 10.07 10.0278 9.97163 10.1268 9.75123L11.8711 5.86965L11.8933 5.80874C11.9513 5.6035 11.8518 5.3813 11.6514 5.29126Z" />
</svg>